<?xml version="1.0" encoding="utf-8"?>
<!-- Generator: Adobe Illustrator 23.0.3, SVG Export Plug-In . SVG Version: 6.00 Build 0)  -->
<svg version="1.1" id="Layer_1" xmlns="http://www.w3.org/2000/svg" xmlns:xlink="http://www.w3.org/1999/xlink" x="0px" y="0px"
	 viewBox="0 0 118.3 28.7" style="enable-background:new 0 0 118.3 28.7;" xml:space="preserve">
<style type="text/css">
	.st0{fill:#25F4EE;}
	.st1{fill:#FE2C55;}
	.st2{fill:#ffffff;}
</style>
<path class="st0" d="M9.9,11.3v-1.1c-0.4-0.1-0.8-0.1-1.2-0.1C3.9,10.1,0,14,0,18.8c0,2.9,1.5,5.6,3.7,7.1c-1.5-1.6-2.3-3.6-2.3-5.9
	C1.4,15.3,5.2,11.4,9.9,11.3z"/>
<path class="st0" d="M10.1,24c2.1,0,3.9-1.7,4-3.8l0-19h3.5c-0.1-0.4-0.1-0.8-0.1-1.2h-4.7l0,19c-0.1,2.1-1.8,3.8-4,3.8
	c-0.7,0-1.3-0.2-1.8-0.5C7.6,23.3,8.8,24,10.1,24z"/>
<path class="st0" d="M24,7.6V6.6c-1.3,0-2.5-0.4-3.6-1.1C21.3,6.6,22.6,7.3,24,7.6z"/>
<path class="st1" d="M20.4,5.5c-1-1.2-1.6-2.7-1.6-4.3h-1.3C17.9,3,18.9,4.6,20.4,5.5z"/>
<path class="st1" d="M8.7,14.8c-2.2,0-4,1.8-4,4c0,1.5,0.9,2.9,2.1,3.5c-0.5-0.7-0.8-1.5-0.8-2.3c0-2.2,1.8-4,4-4
	c0.4,0,0.8,0.1,1.2,0.2v-4.8c-0.4-0.1-0.8-0.1-1.2-0.1c-0.1,0-0.1,0-0.2,0V15C9.5,14.9,9.1,14.8,8.7,14.8z"/>
<path class="st1" d="M24,7.6v3.7c-2.5,0-4.7-0.8-6.6-2.1v9.6c0,4.8-3.9,8.7-8.7,8.7c-1.9,0-3.6-0.6-5-1.6c1.6,1.7,3.9,2.8,6.4,2.8
	c4.8,0,8.7-3.9,8.7-8.7v-9.6c1.9,1.3,4.1,2.1,6.6,2.1V7.8C24.9,7.8,24.4,7.7,24,7.6z"/>
<path class="st2" d="M17.4,18.8V9.2c1.9,1.3,4.1,2.1,6.6,2.1V7.6c-1.4-0.3-2.7-1.1-3.6-2.1c-1.5-1-2.5-2.5-2.9-4.3h-3.5l0,19
	c-0.1,2.1-1.8,3.8-4,3.8c-1.3,0-2.5-0.7-3.2-1.7c-1.3-0.7-2.1-2-2.1-3.5c0-2.2,1.8-4,4-4c0.4,0,0.8,0.1,1.2,0.2v-3.7
	c-4.7,0.1-8.5,4-8.5,8.7c0,2.3,0.9,4.4,2.3,5.9c1.4,1,3.1,1.6,5,1.6C13.5,27.5,17.4,23.6,17.4,18.8z"/>
<path class="st2" d="M30,7.7h14.8l-1.4,4.2h-3.8v15.6h-4.8V11.9l-4.8,0L30,7.7z"/>
<path class="st2" d="M69,7.7h15.1l-1.4,4.2h-4.2v15.6h-4.8V11.9l-4.8,0L69,7.7z"/>
<path class="st2" d="M45.7,14h4.7v13.6h-4.7L45.7,14z"/>
<path class="st2" d="M52.3,7.6h4.7v9.3l4.7-4.6h5.6L61.5,18l6.6,9.5h-5.2l-4.4-6.6l-1.4,1.4v5.2h-4.7L52.3,7.6L52.3,7.6z"/>
<path class="st2" d="M102.5,7.6h4.7v9.3l4.7-4.6h5.6l-5.9,5.8l6.6,9.5h-5.2l-4.4-6.6l-1.4,1.4v5.2h-4.7V7.6z"/>
<path class="st2" d="M48.1,12.4c1.3,0,2.4-1.1,2.4-2.4c0-1.3-1.1-2.4-2.4-2.4c-1.3,0-2.4,1.1-2.4,2.4C45.7,11.4,46.8,12.4,48.1,12.4z"/>
<path class="st0" d="M83.5,19.4c0-4.3,3.3-7.8,7.5-8.1c-0.2,0-0.5,0-0.7,0c-4.5,0-8.1,3.6-8.1,8.1c0,4.5,3.6,8.1,8.1,8.1
	c0.2,0,0.5,0,0.7,0C86.8,27.2,83.5,23.7,83.5,19.4z"/>
<path class="st1" d="M92.9,11.3c-0.2,0-0.5,0-0.7,0c4.2,0.3,7.5,3.8,7.5,8.1c0,4.3-3.3,7.8-7.5,8.1c0.2,0,0.5,0,0.7,0
	c4.5,0,8.1-3.6,8.1-8.1C101,14.9,97.3,11.3,92.9,11.3z"/>
<path class="st2" d="M91.6,23.4c-2.2,0-3.9-1.8-3.9-3.9c0-2.2,1.8-3.9,3.9-3.9s3.9,1.8,3.9,3.9C95.5,21.6,93.8,23.4,91.6,23.4z M91.6,11.3
	c-4.5,0-8.1,3.6-8.1,8.1c0,4.5,3.6,8.1,8.1,8.1c4.5,0,8.1-3.6,8.1-8.1C99.7,14.9,96.1,11.3,91.6,11.3z"/>
</svg>
